<svg xmlns="http://www.w3.org/2000/svg" viewBox="0 0 64 64" role="img" aria-label="FixMyDB">
  <defs>
    <linearGradient id="bg" x1="12" y1="8" x2="52" y2="56" gradientUnits="userSpaceOnUse">
      <stop stop-color="#7c6af7"/>
      <stop offset="1" stop-color="#4f46e5"/>
    </linearGradient>
    <linearGradient id="shine" x1="20" y1="16" x2="44" y2="46" gradientUnits="userSpaceOnUse">
      <stop stop-color="#ffffff" stop-opacity=".95"/>
      <stop offset="1" stop-color="#c4cdd9" stop-opacity=".92"/>
    </linearGradient>
  </defs>
  <rect width="64" height="64" rx="14" fill="#0a0a0f"/>
  <rect x="7" y="7" width="50" height="50" rx="12" fill="url(#bg)"/>
  <path d="M18 22c0-4.4 6.3-8 14-8s14 3.6 14 8v20c0 4.4-6.3 8-14 8s-14-3.6-14-8V22z" fill="none" stroke="url(#shine)" stroke-width="4" stroke-linecap="round" stroke-linejoin="round"/>
  <path d="M46 22c0 4.4-6.3 8-14 8s-14-3.6-14-8" fill="none" stroke="url(#shine)" stroke-width="4" stroke-linecap="round" stroke-linejoin="round"/>
  <path d="M46 32c0 4.4-6.3 8-14 8s-14-3.6-14-8" fill="none" stroke="#ffffff" stroke-opacity=".74" stroke-width="4" stroke-linecap="round" stroke-linejoin="round"/>
</svg>
